<svg width="7933" height="2524" viewBox="0 0 7933 2524" fill="none" xmlns="http://www.w3.org/2000/svg">
<path d="M3678.36 793.719C4573.08 441.639 5664.83 198.946 6346.99 347.97C7335.53 563.926 7691.32 1117.09 7723.38 2077.23H7845.4C7901.79 2077.23 7935.67 2139.78 7904.87 2187.01L7716.64 2475.64C7686.79 2521.41 7618.57 2517.71 7593.85 2468.97L7447.44 2180.35C7423.49 2133.11 7457.8 2077.23 7510.76 2077.23H7625.26C7593.75 1173.92 7261.29 688.347 6332.06 485.349C5672.52 341.266 4598.77 575.787 3704.57 927.657C2811.24 1279.18 1920.33 1742.89 1246.73 2051.07C1119.1 2109.46 125.186 2628.17 17.5811 2235.56C6.30571 2194.42 42.7236 2158.62 85.3799 2158.62H120.523C143.77 2158.62 159.211 2179.42 171.275 2199.29C176.613 2208.08 187.017 2218.53 207.234 2226.59C249.23 2243.34 317.489 2243.61 414.035 2223.74C605.072 2184.41 880.914 2072.38 1216.63 1918.78C1884.73 1613.12 2782.75 1146.14 3678.36 793.719Z" fill="#E1090A"/>
<path d="M3678.36 793.719L3684.03 808.142V808.142L3678.36 793.719ZM6346.99 347.97L6343.68 363.113V363.113L6346.99 347.97ZM7723.38 2077.23L7707.89 2077.74L7708.39 2092.73H7723.38V2077.23ZM7845.4 2077.23V2061.73V2061.73V2077.23ZM7904.87 2187.01L7891.89 2178.54V2178.54L7904.87 2187.01ZM7716.64 2475.64L7729.62 2484.1V2484.1L7716.64 2475.64ZM7593.85 2468.97L7580.03 2475.98V2475.98L7593.85 2468.97ZM7447.44 2180.35L7433.62 2187.36V2187.36L7447.44 2180.35ZM7510.76 2077.23V2061.73V2061.73V2077.23ZM7625.26 2077.23V2092.73H7641.31L7640.75 2076.69L7625.26 2077.23ZM6332.06 485.349L6335.37 470.206V470.206L6332.06 485.349ZM3704.57 927.657L3698.89 913.234V913.234L3704.57 927.657ZM1246.73 2051.07L1253.18 2065.16V2065.16L1246.73 2051.07ZM17.5811 2235.56L2.63235 2239.66H2.63236L17.5811 2235.56ZM85.3799 2158.62V2143.12H85.3798L85.3799 2158.62ZM120.523 2158.62L120.524 2143.12H120.523V2158.62ZM171.275 2199.29L158.026 2207.33H158.026L171.275 2199.29ZM207.234 2226.59L201.493 2240.99H201.493L207.234 2226.59ZM414.035 2223.74L417.16 2238.92H417.16L414.035 2223.74ZM1216.63 1918.78L1210.19 1904.69V1904.69L1216.63 1918.78ZM3678.36 793.719L3684.03 808.142C4130.6 632.415 4626.25 484.027 5095.18 398.177C5564.41 312.272 6005.53 289.241 6343.68 363.113L6346.99 347.97L6350.3 332.827C6006.29 257.675 5560.46 281.479 5089.59 367.684C4618.43 453.945 4120.84 602.943 3672.68 779.295L3678.36 793.719ZM6346.99 347.97L6343.68 363.113C6835.64 470.586 7167.91 661.445 7381.52 942.902C7595.31 1224.6 7691.91 1599.25 7707.89 2077.74L7723.38 2077.23L7738.88 2076.71C7722.79 1595.07 7625.47 1213.07 7406.21 924.161C7186.77 635.012 6846.88 441.309 6350.3 332.827L6346.99 347.97ZM7723.38 2077.23V2092.73H7845.4V2077.23V2061.73H7723.38V2077.23ZM7845.4 2077.23V2092.73C7889.48 2092.73 7915.97 2141.63 7891.89 2178.54L7904.87 2187.01L7917.86 2195.48C7955.38 2137.94 7914.1 2061.73 7845.4 2061.73V2077.23ZM7904.87 2187.01L7891.89 2178.54L7703.66 2467.17L7716.64 2475.64L7729.62 2484.1L7917.86 2195.48L7904.87 2187.01ZM7716.64 2475.64L7703.66 2467.17C7680.32 2502.95 7627 2500.06 7607.67 2461.96L7593.85 2468.97L7580.03 2475.98C7610.15 2535.36 7693.25 2539.88 7729.62 2484.1L7716.64 2475.64ZM7593.85 2468.97L7607.67 2461.96L7461.27 2173.33L7447.44 2180.35L7433.62 2187.36L7580.03 2475.98L7593.85 2468.97ZM7447.44 2180.35L7461.27 2173.33C7442.54 2136.41 7469.36 2092.73 7510.76 2092.73V2077.23V2061.73C7446.24 2061.73 7404.43 2129.82 7433.62 2187.36L7447.44 2180.35ZM7510.76 2077.23V2092.73H7625.26V2077.23V2061.73H7510.76V2077.23ZM7625.26 2077.23L7640.75 2076.69C7624.94 1623.48 7533.59 1272.47 7327.51 1009.12C7121.3 745.597 6802.03 572.152 6335.37 470.206L6332.06 485.349L6328.75 500.492C6791.32 601.543 7102.9 772.384 7303.1 1028.22C7503.43 1284.23 7594.07 1627.66 7609.77 2077.77L7625.26 2077.23ZM6332.06 485.349L6335.37 470.206C6002.67 397.523 5566.98 420.523 5103.52 505.274C4639.75 590.081 4146.79 736.983 3698.89 913.234L3704.57 927.657L3710.24 942.081C4156.54 766.461 4647.56 620.167 5109.1 535.768C5570.95 451.311 6001.92 429.092 6328.75 500.492L6332.06 485.349ZM3704.57 927.657L3698.89 913.234C2805.11 1264.94 1912.8 1729.29 1240.28 2036.97L1246.73 2051.07L1253.18 2065.16C1927.86 1756.49 2817.37 1293.43 3710.24 942.081L3704.57 927.657ZM1246.73 2051.07L1240.28 2036.97C1175.56 2066.59 896.653 2210.14 619.973 2297.66C481.485 2341.47 345.332 2370.62 237.88 2365.1C184.261 2362.34 138.944 2351 104.195 2329.56C69.858 2308.37 44.9586 2276.81 32.5298 2231.46L17.5811 2235.56L2.63236 2239.66C17.1047 2292.46 46.8038 2330.57 87.9168 2355.94C128.618 2381.05 179.601 2393.14 236.288 2396.06C349.447 2401.87 489.927 2371.31 629.322 2327.22C908.409 2238.94 1190.28 2093.94 1253.18 2065.16L1246.73 2051.07ZM17.5811 2235.56L32.5298 2231.46C28.4723 2216.66 32.798 2202.83 42.6378 2192.19C52.6738 2181.33 68.2889 2174.12 85.3799 2174.12L85.3799 2158.62L85.3798 2143.12C59.8146 2143.12 35.8926 2153.82 19.8745 2171.14C3.66004 2188.68 -4.58549 2213.32 2.63235 2239.66L17.5811 2235.56ZM85.3799 2158.62V2174.12H120.523V2158.62V2143.12H85.3799V2158.62ZM120.523 2158.62L120.523 2174.12C127.051 2174.12 133.134 2176.91 139.546 2182.86C146.169 2189.01 152.137 2197.63 158.026 2207.33L171.275 2199.29L184.525 2191.25C178.35 2181.07 170.565 2169.36 160.64 2160.15C150.503 2150.73 137.243 2143.12 120.524 2143.12L120.523 2158.62ZM171.275 2199.29L158.026 2207.33C165.319 2219.35 178.545 2231.84 201.493 2240.99L207.234 2226.59L212.976 2212.19C195.489 2205.22 187.907 2196.82 184.525 2191.25L171.275 2199.29ZM207.234 2226.59L201.493 2240.99C247.938 2259.51 320.04 2258.91 417.16 2238.92L414.035 2223.74L410.91 2208.55C314.938 2228.31 250.521 2227.16 212.976 2212.19L207.234 2226.59ZM414.035 2223.74L417.16 2238.92C610.168 2199.19 887.532 2086.4 1223.08 1932.88L1216.63 1918.78L1210.19 1904.69C874.295 2058.36 599.975 2169.64 410.91 2208.55L414.035 2223.74ZM1216.63 1918.78L1223.08 1932.88C1892.26 1626.72 2788.89 1160.39 3684.03 808.142L3678.36 793.719L3672.68 779.295C2776.62 1131.9 1877.21 1599.52 1210.19 1904.69L1216.63 1918.78Z" fill="black"/>
<path d="M2922.12 655H2696.16L2600.37 106.473H2770.66L2796.86 299.686L2815.69 517.459H2826.33L2855.8 299.686L2895.92 106.473H3116.15L3153.81 291.499L3188.2 517.459H3198.84L3218.49 291.499L3242.23 106.473H3409.24L3312.64 655H3086.68L3039.19 447.051L3009.72 259.57H2999.9L2969.6 447.051L2922.12 655ZM3624.84 663.187C3450.45 663.187 3348.94 551.844 3348.94 380.737C3348.94 209.629 3450.45 98.2863 3624.84 98.2863C3798.4 98.2863 3899.92 209.629 3899.92 380.737C3899.92 551.844 3798.4 663.187 3624.84 663.187ZM3624.84 513.365C3709.16 513.365 3734.54 486.348 3734.54 380.737C3734.54 275.125 3709.16 248.108 3624.84 248.108C3539.69 248.108 3514.31 275.125 3514.31 380.737C3514.31 486.348 3539.69 513.365 3624.84 513.365ZM4051.44 655H3897.53V106.473H4173.43C4311.79 106.473 4377.28 165.419 4377.28 275.125C4377.28 361.907 4343.72 415.941 4251.2 426.584V433.952C4306.87 448.688 4328.98 483.892 4350.27 530.558L4407.57 655H4228.28L4174.25 541.201C4151.32 493.717 4140.68 479.799 4089.1 479.799H4051.44V655ZM4051.44 244.833V352.082H4167.7C4211.09 352.082 4223.37 339.802 4223.37 296.411C4223.37 256.295 4211.09 244.833 4167.7 244.833H4051.44ZM4813.26 655H4384.27V106.473H4538.18V516.64H4813.26V655ZM5036.45 655H4799.85V106.473H5036.45C5216.57 106.473 5315.63 207.173 5315.63 380.737C5315.63 554.3 5216.57 655 5036.45 655ZM5028.27 244.833H4953.77V516.64H5028.27C5124.87 516.64 5149.43 496.173 5149.43 380.737C5149.43 265.3 5124.87 244.833 5028.27 244.833Z" fill="white"/>
<path d="M2618.37 1268.85H2459.55L2650.3 720.325H2873.81L3063.74 1268.85H2895.09L2861.53 1163.24H2653.58L2618.37 1268.85ZM2708.43 997.044L2697.79 1028.97H2818.14L2808.31 997.044L2764.92 853.772H2753.46L2708.43 997.044ZM3244.46 1277.04C3087.27 1277.04 3008.67 1203.36 3008.67 1088.74V1078.1H3160.13V1084.64C3160.13 1129.67 3176.51 1138.68 3250.19 1138.68C3308.32 1138.68 3320.6 1129.67 3320.6 1105.93C3320.6 1080.55 3312.41 1072.36 3274.75 1066.63L3155.22 1047.8C3043.88 1030.61 2998.03 971.665 2998.03 886.52C2998.03 789.095 3072.53 712.138 3233.82 712.138C3386.91 712.138 3459.78 789.095 3459.78 891.432V905.35H3308.32V895.526C3308.32 863.597 3292.76 850.498 3223.99 850.498C3165.86 850.498 3151.13 860.322 3151.13 880.789C3151.13 897.982 3161.77 905.35 3193.7 911.081L3313.23 932.367C3429.48 952.835 3474.51 1013.42 3474.51 1098.56C3474.51 1194.35 3409.02 1277.04 3244.46 1277.04ZM3713.82 1277.04C3544.35 1277.04 3466.57 1190.26 3466.57 1056.81V720.325H3620.49V1048.62C3620.49 1110.02 3635.23 1127.22 3713.82 1127.22C3792.42 1127.22 3807.15 1110.02 3807.15 1048.62V720.325H3961.07V1056.81C3961.07 1190.26 3883.29 1277.04 3713.82 1277.04ZM4130.51 1268.85H3976.6V720.325H4252.5C4390.86 720.325 4456.35 779.271 4456.35 888.976C4456.35 975.758 4422.79 1029.79 4330.27 1040.44V1047.8C4385.95 1062.54 4408.05 1097.74 4429.34 1144.41L4486.65 1268.85H4307.35L4253.32 1155.05C4230.39 1107.57 4219.75 1093.65 4168.17 1093.65H4130.51V1268.85ZM4130.51 858.684V965.934H4246.77C4290.16 965.934 4302.44 953.653 4302.44 910.262C4302.44 870.146 4290.16 858.684 4246.77 858.684H4130.51ZM4591.72 1268.85H4432.89L4623.65 720.325H4847.15L5037.09 1268.85H4868.44L4834.87 1163.24H4626.92L4591.72 1268.85ZM4681.78 997.044L4671.13 1028.97H4791.48L4781.66 997.044L4738.27 853.772H4726.8L4681.78 997.044ZM5217.81 1277.04C5060.62 1277.04 4982.02 1203.36 4982.02 1088.74V1078.1H5133.48V1084.64C5133.48 1129.67 5149.85 1138.68 5223.54 1138.68C5281.66 1138.68 5293.94 1129.67 5293.94 1105.93C5293.94 1080.55 5285.76 1072.36 5248.1 1066.63L5128.57 1047.8C5017.22 1030.61 4971.38 971.665 4971.38 886.52C4971.38 789.095 5045.88 712.138 5207.16 712.138C5360.26 712.138 5433.12 789.095 5433.12 891.432V905.35H5281.66V895.526C5281.66 863.597 5266.11 850.498 5197.34 850.498C5139.21 850.498 5124.47 860.322 5124.47 880.789C5124.47 897.982 5135.12 905.35 5167.05 911.081L5286.58 932.367C5402.83 952.835 5447.86 1013.42 5447.86 1098.56C5447.86 1194.35 5382.36 1277.04 5217.81 1277.04Z" fill="white"/>
<path d="M3811.75 850.383C3795.16 850.383 3780.42 846.126 3767.54 837.611C3754.66 829.097 3744.51 817.308 3737.09 802.244C3729.88 786.961 3726.28 769.496 3726.28 749.847C3726.28 735.22 3729.23 721.029 3735.12 707.275C3741.02 693.302 3747.57 681.076 3754.77 670.597C3753.9 667.322 3753.46 663.283 3753.46 658.48C3753.46 652.586 3755.86 645.818 3760.67 638.177C3765.47 630.536 3772.13 623.113 3780.64 615.908C3789.38 608.704 3799.53 602.7 3811.1 597.897C3822.89 593.094 3835.66 590.692 3849.41 590.692C3870.81 590.692 3888.82 595.059 3903.45 603.791C3918.08 612.524 3929.1 623.986 3936.52 638.177C3944.16 652.367 3947.98 667.759 3947.98 684.351C3947.98 708.366 3944.06 730.526 3936.2 750.829C3928.34 771.133 3917.86 788.708 3904.76 803.553C3891.66 818.399 3877.03 829.97 3860.88 838.266C3844.72 846.344 3828.35 850.383 3811.75 850.383ZM3815.68 645.054C3815.9 645.709 3816.01 646.364 3816.01 647.019C3816.01 649.202 3815.57 651.603 3814.7 654.223C3813.83 656.625 3812.08 659.026 3809.46 661.428C3805.09 665.794 3800.73 671.907 3796.36 679.767C3792 687.408 3787.96 695.922 3784.25 705.31C3780.75 714.698 3777.91 724.304 3775.73 734.128C3773.55 743.952 3772.46 753.34 3772.46 762.291C3772.46 774.517 3775.29 784.669 3780.97 792.747C3786.87 800.824 3796.03 804.863 3808.48 804.863C3818.96 804.863 3828.89 802.462 3838.28 797.659C3847.67 792.638 3856.29 785.979 3864.15 777.683C3872.01 769.168 3878.78 759.78 3884.45 749.519C3890.13 739.04 3894.5 728.452 3897.55 717.754C3900.83 706.838 3902.47 696.468 3902.47 686.644C3902.47 677.474 3900.5 668.96 3896.57 661.1C3892.86 653.241 3887.4 646.91 3880.2 642.106C3872.99 637.085 3864.04 634.574 3853.34 634.574C3845.48 634.574 3838.39 635.557 3832.06 637.522C3825.94 639.487 3820.49 641.997 3815.68 645.054ZM4013.39 879.201C4007.93 879.201 4003.24 877.564 3999.31 874.289C3995.38 871.232 3993.63 864.901 3994.07 855.295C3994.5 844.597 3995.27 833.463 3996.36 821.892C3997.45 810.321 3998.65 799.515 3999.96 789.472C4002.8 767.422 4003.45 750.393 4001.93 738.385C4000.62 726.159 3997.23 717.427 3991.77 712.187C3986.54 706.947 3979.44 703.454 3970.49 701.708C3966.12 700.834 3962.63 699.197 3960.01 696.795C3957.39 694.176 3956.08 690.792 3956.08 686.644C3956.08 681.186 3958.26 677.583 3962.63 675.837C3966.78 674.09 3972.13 673.217 3978.68 673.217C3983.7 673.217 3990.14 673.544 3998 674.199C4006.07 674.636 4014.7 674.964 4023.87 675.182C4031.51 650.075 4040.13 629.335 4049.74 612.961C4059.34 596.587 4069.82 583.706 4081.18 574.318C4092.53 564.712 4104.54 558.054 4117.2 554.342C4129.86 550.412 4142.96 548.448 4156.5 548.448C4173.31 548.448 4181.71 554.451 4181.71 566.459C4181.71 572.354 4178.87 576.829 4173.2 579.886C4167.52 582.942 4158.9 585.453 4147.33 587.418C4133.57 589.819 4121.46 594.295 4110.98 600.844C4100.72 607.394 4091.66 616.672 4083.8 628.68C4076.16 640.687 4069.39 656.188 4063.49 675.182C4093.84 674.527 4118.73 672.889 4138.16 670.27C4157.59 667.65 4172.54 665.139 4183.02 662.738C4193.72 660.118 4201.14 658.808 4205.29 658.808C4211.19 658.808 4214.79 660.227 4216.1 663.065C4217.63 665.903 4218.39 668.96 4218.39 672.235C4218.39 675.946 4214.9 679.767 4207.91 683.696C4203.33 686.316 4196.01 689.263 4185.97 692.538C4175.93 695.595 4164.14 698.651 4150.6 701.708C4137.07 704.546 4122.77 706.947 4107.7 708.912C4092.86 710.659 4078.34 711.532 4064.15 711.532C4060.65 711.532 4057.49 711.532 4054.65 711.532C4052.25 724.194 4049.85 737.621 4047.45 751.812C4045.26 765.784 4043.3 779.429 4041.55 792.747C4039.81 806.064 4038.28 818.181 4036.97 829.097C4035.88 840.013 4035.22 848.746 4035 855.295C4034.78 863.373 4032.71 869.377 4028.78 873.306C4024.85 877.236 4019.72 879.201 4013.39 879.201Z" fill="black"/>
<path d="M3333.87 1673.75C3277.59 1673.75 3243.99 1635.67 3243.99 1577.15C3243.99 1518.63 3277.59 1480.55 3333.87 1480.55C3389.31 1480.55 3419.27 1509.67 3419.27 1556.15V1558.67H3374.47V1557.27C3374.47 1530.39 3363.27 1521.15 3333.59 1521.15C3301.95 1521.15 3288.79 1532.63 3288.79 1577.15C3288.79 1621.67 3301.95 1633.15 3333.59 1633.15C3363.27 1633.15 3374.47 1623.91 3374.47 1597.03V1595.63H3419.27V1598.15C3419.27 1644.63 3389.31 1673.75 3333.87 1673.75ZM3547.07 1673.75C3491.07 1673.75 3456.91 1635.67 3456.91 1577.15C3456.91 1518.63 3491.07 1480.55 3547.07 1480.55C3603.07 1480.55 3636.95 1518.63 3636.95 1577.15C3636.95 1635.67 3603.07 1673.75 3547.07 1673.75ZM3547.07 1633.15C3579.27 1633.15 3592.15 1621.11 3592.15 1577.15C3592.15 1533.19 3579.27 1521.15 3547.07 1521.15C3514.87 1521.15 3501.71 1533.19 3501.71 1577.15C3501.71 1621.11 3514.87 1633.15 3547.07 1633.15ZM3718.77 1670.95H3676.77V1483.35H3721.57L3782.33 1577.43L3798.01 1602.63H3800.81L3800.25 1577.43V1483.35H3842.25V1670.95H3797.45L3739.21 1582.19L3721.01 1553.35H3718.21L3718.77 1582.19V1670.95ZM3973.82 1670.95H3931.82V1521.15H3871.34V1483.35H4034.3V1521.15H3973.82V1670.95ZM4206.59 1670.95H4063.51V1483.35H4206.59V1521.15H4105.51V1557.83H4202.39V1595.35H4105.51V1633.15H4206.59V1670.95ZM4326.99 1673.75C4271.83 1673.75 4246.35 1651.35 4246.35 1609.91V1606.27H4287.51V1609.07C4287.51 1629.79 4295.07 1635.67 4328.95 1635.67C4352.75 1635.67 4358.63 1630.91 4358.63 1618.31C4358.63 1605.71 4355.83 1601.23 4329.51 1596.75L4296.47 1590.87C4260.63 1584.71 4245.51 1566.51 4245.51 1537.39C4245.51 1508.83 4266.51 1480.55 4320.27 1480.55C4373.75 1480.55 4396.15 1508.27 4396.15 1545.51V1547.75H4354.71V1544.67C4354.71 1525.07 4346.59 1518.63 4318.87 1518.63C4294.79 1518.63 4287.23 1523.95 4287.23 1535.71C4287.23 1547.75 4292.27 1550.55 4314.11 1554.75L4347.43 1561.19C4386.91 1568.75 4400.35 1589.47 4400.35 1616.91C4400.35 1646.87 4380.19 1673.75 4326.99 1673.75ZM4520.44 1670.95H4478.44V1521.15H4417.96V1483.35H4580.92V1521.15H4520.44V1670.95Z" fill="white"/>
</svg>
