<svg width="7933" height="2524" viewBox="0 0 7933 2524" fill="none" xmlns="http://www.w3.org/2000/svg">
<path d="M3678.36 793.719C4573.08 441.639 5664.83 198.946 6346.99 347.97C7335.53 563.926 7691.32 1117.09 7723.38 2077.23H7845.4C7901.79 2077.23 7935.67 2139.78 7904.87 2187.01L7716.64 2475.64C7686.79 2521.41 7618.57 2517.71 7593.85 2468.97L7447.44 2180.35C7423.49 2133.11 7457.8 2077.23 7510.76 2077.23H7625.26C7593.75 1173.92 7261.29 688.347 6332.06 485.349C5672.52 341.266 4598.77 575.787 3704.57 927.657C2811.24 1279.18 1920.33 1742.89 1246.73 2051.07C1119.1 2109.46 125.186 2628.17 17.5811 2235.56C6.30571 2194.42 42.7236 2158.62 85.3799 2158.62H120.523C143.77 2158.62 159.211 2179.42 171.275 2199.29C176.613 2208.08 187.017 2218.53 207.234 2226.59C249.23 2243.34 317.489 2243.61 414.035 2223.74C605.072 2184.41 880.914 2072.38 1216.63 1918.78C1884.73 1613.12 2782.75 1146.14 3678.36 793.719Z" fill="#E1090A"/>
<path d="M3678.36 793.719L3684.03 808.142V808.142L3678.36 793.719ZM6346.99 347.97L6343.68 363.113V363.113L6346.99 347.97ZM7723.38 2077.23L7707.89 2077.74L7708.39 2092.73H7723.38V2077.23ZM7845.4 2077.23V2061.73V2061.73V2077.23ZM7904.87 2187.01L7891.89 2178.54V2178.54L7904.87 2187.01ZM7716.64 2475.64L7729.62 2484.1V2484.1L7716.64 2475.64ZM7593.85 2468.97L7580.03 2475.98V2475.98L7593.85 2468.97ZM7447.44 2180.35L7433.62 2187.36V2187.36L7447.44 2180.35ZM7510.76 2077.23V2061.73V2061.73V2077.23ZM7625.26 2077.23V2092.73H7641.31L7640.75 2076.69L7625.26 2077.23ZM6332.06 485.349L6335.37 470.206V470.206L6332.06 485.349ZM3704.57 927.657L3698.89 913.234V913.234L3704.57 927.657ZM1246.73 2051.07L1253.18 2065.16V2065.16L1246.73 2051.07ZM17.5811 2235.56L2.63235 2239.66H2.63236L17.5811 2235.56ZM85.3799 2158.62V2143.12H85.3798L85.3799 2158.62ZM120.523 2158.62L120.524 2143.12H120.523V2158.62ZM171.275 2199.29L158.026 2207.33H158.026L171.275 2199.29ZM207.234 2226.59L201.493 2240.99H201.493L207.234 2226.59ZM414.035 2223.74L417.16 2238.92H417.16L414.035 2223.74ZM1216.63 1918.78L1210.19 1904.69V1904.69L1216.63 1918.78ZM3678.36 793.719L3684.03 808.142C4130.6 632.415 4626.25 484.027 5095.18 398.177C5564.41 312.272 6005.53 289.241 6343.68 363.113L6346.99 347.97L6350.3 332.827C6006.29 257.675 5560.46 281.479 5089.59 367.684C4618.43 453.945 4120.84 602.943 3672.68 779.295L3678.36 793.719ZM6346.99 347.97L6343.68 363.113C6835.64 470.586 7167.91 661.445 7381.52 942.902C7595.31 1224.6 7691.91 1599.25 7707.89 2077.74L7723.38 2077.23L7738.88 2076.71C7722.79 1595.07 7625.47 1213.07 7406.21 924.161C7186.77 635.012 6846.88 441.309 6350.3 332.827L6346.99 347.97ZM7723.38 2077.23V2092.73H7845.4V2077.23V2061.73H7723.38V2077.23ZM7845.4 2077.23V2092.73C7889.48 2092.73 7915.97 2141.63 7891.89 2178.54L7904.87 2187.01L7917.86 2195.48C7955.38 2137.94 7914.1 2061.73 7845.4 2061.73V2077.23ZM7904.87 2187.01L7891.89 2178.54L7703.66 2467.17L7716.64 2475.64L7729.62 2484.1L7917.86 2195.48L7904.87 2187.01ZM7716.64 2475.64L7703.66 2467.17C7680.32 2502.95 7627 2500.06 7607.67 2461.96L7593.85 2468.97L7580.03 2475.98C7610.15 2535.36 7693.25 2539.88 7729.62 2484.1L7716.64 2475.64ZM7593.85 2468.97L7607.67 2461.96L7461.27 2173.33L7447.44 2180.35L7433.62 2187.36L7580.03 2475.98L7593.85 2468.97ZM7447.44 2180.35L7461.27 2173.33C7442.54 2136.41 7469.36 2092.73 7510.76 2092.73V2077.23V2061.73C7446.24 2061.73 7404.43 2129.82 7433.62 2187.36L7447.44 2180.35ZM7510.76 2077.23V2092.73H7625.26V2077.23V2061.73H7510.76V2077.23ZM7625.26 2077.23L7640.75 2076.69C7624.94 1623.48 7533.59 1272.47 7327.51 1009.12C7121.3 745.597 6802.03 572.152 6335.37 470.206L6332.06 485.349L6328.75 500.492C6791.32 601.543 7102.9 772.384 7303.1 1028.22C7503.43 1284.23 7594.07 1627.66 7609.77 2077.77L7625.26 2077.23ZM6332.06 485.349L6335.37 470.206C6002.67 397.523 5566.98 420.523 5103.52 505.274C4639.75 590.081 4146.79 736.983 3698.89 913.234L3704.57 927.657L3710.24 942.081C4156.54 766.461 4647.56 620.167 5109.1 535.768C5570.95 451.311 6001.92 429.092 6328.75 500.492L6332.06 485.349ZM3704.57 927.657L3698.89 913.234C2805.11 1264.94 1912.8 1729.29 1240.28 2036.97L1246.73 2051.07L1253.18 2065.16C1927.86 1756.49 2817.37 1293.43 3710.24 942.081L3704.57 927.657ZM1246.73 2051.07L1240.28 2036.97C1175.56 2066.59 896.653 2210.14 619.973 2297.66C481.485 2341.47 345.332 2370.62 237.88 2365.1C184.261 2362.34 138.944 2351 104.195 2329.56C69.858 2308.37 44.9586 2276.81 32.5298 2231.46L17.5811 2235.56L2.63236 2239.66C17.1047 2292.46 46.8038 2330.57 87.9168 2355.94C128.618 2381.05 179.601 2393.14 236.288 2396.06C349.447 2401.87 489.927 2371.31 629.322 2327.22C908.409 2238.94 1190.28 2093.94 1253.18 2065.16L1246.73 2051.07ZM17.5811 2235.56L32.5298 2231.46C28.4723 2216.66 32.798 2202.83 42.6378 2192.19C52.6738 2181.33 68.2889 2174.12 85.3799 2174.12L85.3799 2158.62L85.3798 2143.12C59.8146 2143.12 35.8926 2153.82 19.8745 2171.14C3.66004 2188.68 -4.58549 2213.32 2.63235 2239.66L17.5811 2235.56ZM85.3799 2158.62V2174.12H120.523V2158.62V2143.12H85.3799V2158.62ZM120.523 2158.62L120.523 2174.12C127.051 2174.12 133.134 2176.91 139.546 2182.86C146.169 2189.01 152.137 2197.63 158.026 2207.33L171.275 2199.29L184.525 2191.25C178.35 2181.07 170.565 2169.36 160.64 2160.15C150.503 2150.73 137.243 2143.12 120.524 2143.12L120.523 2158.62ZM171.275 2199.29L158.026 2207.33C165.319 2219.35 178.545 2231.84 201.493 2240.99L207.234 2226.59L212.976 2212.19C195.489 2205.22 187.907 2196.82 184.525 2191.25L171.275 2199.29ZM207.234 2226.59L201.493 2240.99C247.938 2259.51 320.04 2258.91 417.16 2238.92L414.035 2223.74L410.91 2208.55C314.938 2228.31 250.521 2227.16 212.976 2212.19L207.234 2226.59ZM414.035 2223.74L417.16 2238.92C610.168 2199.19 887.532 2086.4 1223.08 1932.88L1216.63 1918.78L1210.19 1904.69C874.295 2058.36 599.975 2169.64 410.91 2208.55L414.035 2223.74ZM1216.63 1918.78L1223.08 1932.88C1892.26 1626.72 2788.89 1160.39 3684.03 808.142L3678.36 793.719L3672.68 779.295C2776.62 1131.9 1877.21 1599.52 1210.19 1904.69L1216.63 1918.78Z" fill="black"/>
<path d="M2922.12 655H2696.16L2600.37 106.473H2770.66L2796.86 299.686L2815.69 517.459H2826.33L2855.8 299.686L2895.92 106.473H3116.15L3153.81 291.499L3188.2 517.459H3198.84L3218.49 291.499L3242.23 106.473H3409.24L3312.64 655H3086.68L3039.19 447.051L3009.72 259.57H2999.9L2969.6 447.051L2922.12 655ZM3624.84 663.187C3450.45 663.187 3348.94 551.844 3348.94 380.737C3348.94 209.629 3450.45 98.2863 3624.84 98.2863C3798.4 98.2863 3899.92 209.629 3899.92 380.737C3899.92 551.844 3798.4 663.187 3624.84 663.187ZM3624.84 513.365C3709.16 513.365 3734.54 486.348 3734.54 380.737C3734.54 275.125 3709.16 248.108 3624.84 248.108C3539.69 248.108 3514.31 275.125 3514.31 380.737C3514.31 486.348 3539.69 513.365 3624.84 513.365ZM4051.44 655H3897.53V106.473H4173.43C4311.79 106.473 4377.28 165.419 4377.28 275.125C4377.28 361.907 4343.72 415.941 4251.2 426.584V433.952C4306.87 448.688 4328.98 483.892 4350.27 530.558L4407.57 655H4228.28L4174.25 541.201C4151.32 493.717 4140.68 479.799 4089.1 479.799H4051.44V655ZM4051.44 244.833V352.082H4167.7C4211.09 352.082 4223.37 339.802 4223.37 296.411C4223.37 256.295 4211.09 244.833 4167.7 244.833H4051.44ZM4813.26 655H4384.27V106.473H4538.18V516.64H4813.26V655ZM5036.45 655H4799.85V106.473H5036.45C5216.57 106.473 5315.63 207.173 5315.63 380.737C5315.63 554.3 5216.57 655 5036.45 655ZM5028.27 244.833H4953.77V516.64H5028.27C5124.87 516.64 5149.43 496.173 5149.43 380.737C5149.43 265.3 5124.87 244.833 5028.27 244.833Z" fill="white"/>
<path d="M2618.37 1268.85H2459.55L2650.3 720.325H2873.81L3063.74 1268.85H2895.09L2861.53 1163.24H2653.58L2618.37 1268.85ZM2708.43 997.044L2697.79 1028.97H2818.14L2808.31 997.044L2764.92 853.772H2753.46L2708.43 997.044ZM3244.46 1277.04C3087.27 1277.04 3008.67 1203.36 3008.67 1088.74V1078.1H3160.13V1084.64C3160.13 1129.67 3176.51 1138.68 3250.19 1138.68C3308.32 1138.68 3320.6 1129.67 3320.6 1105.93C3320.6 1080.55 3312.41 1072.36 3274.75 1066.63L3155.22 1047.8C3043.88 1030.61 2998.03 971.665 2998.03 886.52C2998.03 789.095 3072.53 712.138 3233.82 712.138C3386.91 712.138 3459.78 789.095 3459.78 891.432V905.35H3308.32V895.526C3308.32 863.597 3292.76 850.498 3223.99 850.498C3165.86 850.498 3151.13 860.322 3151.13 880.789C3151.13 897.982 3161.77 905.35 3193.7 911.081L3313.23 932.367C3429.48 952.835 3474.51 1013.42 3474.51 1098.56C3474.51 1194.35 3409.02 1277.04 3244.46 1277.04ZM3713.82 1277.04C3544.35 1277.04 3466.57 1190.26 3466.57 1056.81V720.325H3620.49V1048.62C3620.49 1110.02 3635.23 1127.22 3713.82 1127.22C3792.42 1127.22 3807.15 1110.02 3807.15 1048.62V720.325H3961.07V1056.81C3961.07 1190.26 3883.29 1277.04 3713.82 1277.04ZM4130.51 1268.85H3976.6V720.325H4252.5C4390.86 720.325 4456.35 779.271 4456.35 888.976C4456.35 975.758 4422.79 1029.79 4330.27 1040.44V1047.8C4385.95 1062.54 4408.05 1097.74 4429.34 1144.41L4486.65 1268.85H4307.35L4253.32 1155.05C4230.39 1107.57 4219.75 1093.65 4168.17 1093.65H4130.51V1268.85ZM4130.51 858.684V965.934H4246.77C4290.16 965.934 4302.44 953.653 4302.44 910.262C4302.44 870.146 4290.16 858.684 4246.77 858.684H4130.51ZM4591.72 1268.85H4432.89L4623.65 720.325H4847.15L5037.09 1268.85H4868.44L4834.87 1163.24H4626.92L4591.72 1268.85ZM4681.78 997.044L4671.13 1028.97H4791.48L4781.66 997.044L4738.27 853.772H4726.8L4681.78 997.044ZM5217.81 1277.04C5060.62 1277.04 4982.02 1203.36 4982.02 1088.74V1078.1H5133.48V1084.64C5133.48 1129.67 5149.85 1138.68 5223.54 1138.68C5281.66 1138.68 5293.94 1129.67 5293.94 1105.93C5293.94 1080.55 5285.76 1072.36 5248.1 1066.63L5128.57 1047.8C5017.22 1030.61 4971.38 971.665 4971.38 886.52C4971.38 789.095 5045.88 712.138 5207.16 712.138C5360.26 712.138 5433.12 789.095 5433.12 891.432V905.35H5281.66V895.526C5281.66 863.597 5266.11 850.498 5197.34 850.498C5139.21 850.498 5124.47 860.322 5124.47 880.789C5124.47 897.982 5135.12 905.35 5167.05 911.081L5286.58 932.367C5402.83 952.835 5447.86 1013.42 5447.86 1098.56C5447.86 1194.35 5382.36 1277.04 5217.81 1277.04Z" fill="white"/>
<circle cx="4069.48" cy="705.039" r="225.898" fill="black"/>
<path d="M3963.67 823.556C3949.49 823.556 3936.89 819.916 3925.87 812.636C3914.86 805.356 3906.18 795.276 3899.83 782.396C3893.67 769.329 3890.59 754.396 3890.59 737.596C3890.59 725.089 3893.11 712.956 3898.15 701.196C3903.19 689.249 3908.79 678.796 3914.95 669.836C3914.21 667.036 3913.83 663.583 3913.83 659.476C3913.83 654.436 3915.89 648.649 3919.99 642.116C3924.1 635.583 3929.79 629.236 3937.07 623.076C3944.54 616.916 3953.22 611.783 3963.11 607.676C3973.19 603.569 3984.11 601.516 3995.87 601.516C4014.17 601.516 4029.57 605.249 4042.07 612.716C4054.58 620.183 4064.01 629.983 4070.35 642.116C4076.89 654.249 4080.15 667.409 4080.15 681.596C4080.15 702.129 4076.79 721.076 4070.07 738.436C4063.35 755.796 4054.39 770.823 4043.19 783.516C4031.99 796.209 4019.49 806.103 4005.67 813.196C3991.86 820.103 3977.86 823.556 3963.67 823.556ZM3967.03 647.996C3967.22 648.556 3967.31 649.116 3967.31 649.676C3967.31 651.543 3966.94 653.596 3966.19 655.836C3965.45 657.889 3963.95 659.943 3961.71 661.996C3957.98 665.729 3954.25 670.956 3950.51 677.676C3946.78 684.209 3943.33 691.489 3940.15 699.516C3937.17 707.543 3934.74 715.756 3932.87 724.156C3931.01 732.556 3930.07 740.583 3930.07 748.236C3930.07 758.689 3932.5 767.369 3937.35 774.276C3942.39 781.183 3950.23 784.636 3960.87 784.636C3969.83 784.636 3978.33 782.583 3986.35 778.476C3994.38 774.183 4001.75 768.489 4008.47 761.396C4015.19 754.116 4020.98 746.089 4025.83 737.316C4030.69 728.356 4034.42 719.303 4037.03 710.156C4039.83 700.823 4041.23 691.956 4041.23 683.556C4041.23 675.716 4039.55 668.436 4036.19 661.716C4033.02 654.996 4028.35 649.583 4022.19 645.476C4016.03 641.183 4008.38 639.036 3999.23 639.036C3992.51 639.036 3986.45 639.876 3981.03 641.556C3975.81 643.236 3971.14 645.383 3967.03 647.996ZM4099.67 848.196C4095.01 848.196 4090.99 846.796 4087.63 843.996C4084.27 841.383 4082.78 835.969 4083.15 827.756C4083.53 818.609 4084.18 809.089 4085.11 799.196C4086.05 789.303 4087.07 780.063 4088.19 771.476C4090.62 752.623 4091.18 738.063 4089.87 727.796C4088.75 717.343 4085.86 709.876 4081.19 705.396C4076.71 700.916 4070.65 697.929 4062.99 696.436C4059.26 695.689 4056.27 694.289 4054.03 692.236C4051.79 689.996 4050.67 687.103 4050.67 683.556C4050.67 678.889 4052.54 675.809 4056.27 674.316C4059.82 672.823 4064.39 672.076 4069.99 672.076C4074.29 672.076 4079.79 672.356 4086.51 672.916C4093.42 673.289 4100.79 673.569 4108.63 673.756C4115.17 652.289 4122.54 634.556 4130.75 620.556C4138.97 606.556 4147.93 595.543 4157.63 587.516C4167.34 579.303 4177.61 573.609 4188.43 570.436C4199.26 567.076 4210.46 565.396 4222.03 565.396C4236.41 565.396 4243.59 570.529 4243.59 580.796C4243.59 585.836 4241.17 589.663 4236.31 592.276C4231.46 594.889 4224.09 597.036 4214.19 598.716C4202.43 600.769 4192.07 604.596 4183.11 610.196C4174.34 615.796 4166.59 623.729 4159.87 633.996C4153.34 644.263 4147.55 657.516 4142.51 673.756C4168.46 673.196 4189.74 671.796 4206.35 669.556C4222.97 667.316 4235.75 665.169 4244.71 663.116C4253.86 660.876 4260.21 659.756 4263.75 659.756C4268.79 659.756 4271.87 660.969 4272.99 663.396C4274.3 665.823 4274.95 668.436 4274.95 671.236C4274.95 674.409 4271.97 677.676 4265.99 681.036C4262.07 683.276 4255.82 685.796 4247.23 688.596C4238.65 691.209 4228.57 693.823 4216.99 696.436C4205.42 698.863 4193.19 700.916 4180.31 702.596C4167.62 704.089 4155.21 704.836 4143.07 704.836C4140.09 704.836 4137.38 704.836 4134.95 704.836C4132.9 715.663 4130.85 727.143 4128.79 739.276C4126.93 751.223 4125.25 762.889 4123.75 774.276C4122.26 785.663 4120.95 796.023 4119.83 805.356C4118.9 814.689 4118.34 822.156 4118.15 827.756C4117.97 834.663 4116.19 839.796 4112.83 843.156C4109.47 846.516 4105.09 848.196 4099.67 848.196Z" fill="white"/>
<path d="M3333.87 1673.75C3277.59 1673.75 3243.99 1635.67 3243.99 1577.15C3243.99 1518.63 3277.59 1480.55 3333.87 1480.55C3389.31 1480.55 3419.27 1509.67 3419.27 1556.15V1558.67H3374.47V1557.27C3374.47 1530.39 3363.27 1521.15 3333.59 1521.15C3301.95 1521.15 3288.79 1532.63 3288.79 1577.15C3288.79 1621.67 3301.95 1633.15 3333.59 1633.15C3363.27 1633.15 3374.47 1623.91 3374.47 1597.03V1595.63H3419.27V1598.15C3419.27 1644.63 3389.31 1673.75 3333.87 1673.75ZM3547.07 1673.75C3491.07 1673.75 3456.91 1635.67 3456.91 1577.15C3456.91 1518.63 3491.07 1480.55 3547.07 1480.55C3603.07 1480.55 3636.95 1518.63 3636.95 1577.15C3636.95 1635.67 3603.07 1673.75 3547.07 1673.75ZM3547.07 1633.15C3579.27 1633.15 3592.15 1621.11 3592.15 1577.15C3592.15 1533.19 3579.27 1521.15 3547.07 1521.15C3514.87 1521.15 3501.71 1533.19 3501.71 1577.15C3501.71 1621.11 3514.87 1633.15 3547.07 1633.15ZM3718.77 1670.95H3676.77V1483.35H3721.57L3782.33 1577.43L3798.01 1602.63H3800.81L3800.25 1577.43V1483.35H3842.25V1670.95H3797.45L3739.21 1582.19L3721.01 1553.35H3718.21L3718.77 1582.19V1670.95ZM3973.82 1670.95H3931.82V1521.15H3871.34V1483.35H4034.3V1521.15H3973.82V1670.95ZM4206.59 1670.95H4063.51V1483.35H4206.59V1521.15H4105.51V1557.83H4202.39V1595.35H4105.51V1633.15H4206.59V1670.95ZM4326.99 1673.75C4271.83 1673.75 4246.35 1651.35 4246.35 1609.91V1606.27H4287.51V1609.07C4287.51 1629.79 4295.07 1635.67 4328.95 1635.67C4352.75 1635.67 4358.63 1630.91 4358.63 1618.31C4358.63 1605.71 4355.83 1601.23 4329.51 1596.75L4296.47 1590.87C4260.63 1584.71 4245.51 1566.51 4245.51 1537.39C4245.51 1508.83 4266.51 1480.55 4320.27 1480.55C4373.75 1480.55 4396.15 1508.27 4396.15 1545.51V1547.75H4354.71V1544.67C4354.71 1525.07 4346.59 1518.63 4318.87 1518.63C4294.79 1518.63 4287.23 1523.95 4287.23 1535.71C4287.23 1547.75 4292.27 1550.55 4314.11 1554.75L4347.43 1561.19C4386.91 1568.75 4400.35 1589.47 4400.35 1616.91C4400.35 1646.87 4380.19 1673.75 4326.99 1673.75ZM4520.44 1670.95H4478.44V1521.15H4417.96V1483.35H4580.92V1521.15H4520.44V1670.95Z" fill="white"/>
</svg>
