<svg width="833" height="958" viewBox="0 0 833 958" fill="none" xmlns="http://www.w3.org/2000/svg">
<path d="M188.328 611.368C177.29 762.236 301.149 868.628 365.57 903.682C366.156 904.001 366.841 903.678 366.972 903.024C372.639 874.65 377.942 799.59 355.476 715.36C326.963 608.455 356.667 641.891 403.449 524.619C440.296 432.251 410.754 360.311 390.545 334.591C390.097 334.022 389.243 334.133 388.943 334.792C383.703 346.277 374.622 377.777 375.607 423.399C376.619 470.288 324.692 561.297 297.441 602.788C296.966 603.512 295.925 603.301 295.795 602.445C293.59 587.931 296.178 538.451 322.57 436.677C350.502 328.967 313.682 244.367 291.781 215.53C339.78 298.358 202.207 421.666 188.328 611.368Z" fill="#FFA840"/>
<path d="M445.298 405.507C429.97 342.513 373.767 241.861 346.225 197.225C345.843 196.605 346.299 195.827 347.022 195.743C465.343 181.983 463.63 326.9 447.259 405.509C447.04 406.558 445.551 406.548 445.298 405.507Z" fill="#FFA840"/>
<path d="M424.589 522.192C525.899 352.857 443.792 146.17 388.609 61.3729C388.082 60.563 388.969 59.6283 389.869 59.9787C546.595 120.948 520.416 389.476 538.443 382.206C556.58 374.892 540.954 82.7528 567.259 99.7183C593.564 116.684 703.675 433.978 552.175 597.255C434.121 724.487 416.175 851.667 422.077 903.425C422.195 904.462 420.879 905.022 420.281 904.167C378.55 844.509 324.144 690.083 424.589 522.192Z" fill="#FFA840"/>
</svg>
