<svg width="833" height="958" viewBox="0 0 833 958" fill="none" xmlns="http://www.w3.org/2000/svg">
<path d="M643.959 611.368C654.997 762.236 531.139 868.628 466.717 903.682C466.131 904.001 465.446 903.678 465.315 903.024C459.648 874.65 454.346 799.59 476.811 715.36C505.324 608.455 475.621 641.891 428.838 524.619C391.991 432.251 421.533 360.311 441.743 334.591C442.19 334.022 443.044 334.133 443.345 334.792C448.585 346.277 457.665 377.777 456.681 423.399C455.668 470.288 507.595 561.297 534.846 602.788C535.322 603.512 536.362 603.301 536.492 602.445C538.697 587.931 536.109 538.451 509.717 436.677C481.786 328.967 518.605 244.367 540.506 215.53C492.507 298.358 630.08 421.666 643.959 611.368Z" fill="#FFA840"/>
<path d="M386.989 405.507C402.317 342.513 458.521 241.861 486.062 197.225C486.445 196.605 485.988 195.827 485.265 195.743C366.944 181.983 368.657 326.9 385.028 405.509C385.247 406.558 386.736 406.548 386.989 405.507Z" fill="#FFA840"/>
<path d="M407.698 522.192C306.388 352.857 388.495 146.17 443.678 61.3729C444.206 60.563 443.319 59.6283 442.418 59.9787C285.692 120.948 311.871 389.476 293.844 382.206C275.707 374.892 291.333 82.7528 265.028 99.7183C238.723 116.684 128.612 433.978 280.112 597.255C398.166 724.487 416.112 851.667 410.211 903.425C410.092 904.462 411.408 905.022 412.006 904.167C453.737 844.509 508.143 690.083 407.698 522.192Z" fill="#FFA840"/>
</svg>
