<svg width="394" height="193" viewBox="0 0 394 193" fill="none" xmlns="http://www.w3.org/2000/svg">
<path d="M377.395 88.8564L377.395 107.702" stroke="#301414" stroke-width="4.70612"/>
<path d="M16.0107 88.8564L16.0107 107.702" stroke="#301414" stroke-width="4.70612"/>
<rect y="1.88131" width="209.679" height="209.679" rx="22.1188" transform="matrix(0.916621 0.399757 -0.916621 0.399757 198.234 22.4442)" fill="#E52727" stroke="#301414" stroke-width="4.70612"/>
<rect y="1.88131" width="209.679" height="209.679" rx="22.1188" transform="matrix(0.916621 0.399757 -0.916621 0.399757 198.234 1.12924)" fill="#E52727" stroke="#301414" stroke-width="4.70612"/>
<path d="M18.5441 107.568L18.3379 93.282L33.5614 100.677V118.001L21.8352 112.619C19.8561 111.71 18.5755 109.745 18.5441 107.568Z" fill="#E52727"/>
<path d="M374.841 107.323L375.047 93.0374L359.824 100.432V117.756L371.55 112.374C373.529 111.466 374.81 109.5 374.841 107.323Z" fill="#E52727"/>
</svg>
