<svg width="394" height="193" viewBox="0 0 394 193" fill="none" xmlns="http://www.w3.org/2000/svg">
<rect y="1.88131" width="209.679" height="209.679" rx="22.1188" transform="matrix(0.916621 0.399757 -0.916621 0.399757 198.234 22.4442)" fill="#979797" stroke="#18191A" stroke-width="4.70612"/>
<rect y="1.88131" width="209.679" height="209.679" rx="22.1188" transform="matrix(0.916621 0.399757 -0.916621 0.399757 198.234 1.12924)" fill="#979797" stroke="#18191A" stroke-width="4.70612"/>
<path d="M377.394 88.8567L377.394 107.702" stroke="#18191A" stroke-width="4.70612"/>
<path d="M16.0112 88.8567L16.0112 107.702" stroke="#18191A" stroke-width="4.70612"/>
<path d="M18.5451 107.568L18.3389 93.282L33.5624 100.677V118.001L21.8362 112.619C19.857 111.71 18.5765 109.745 18.5451 107.568Z" fill="#979797"/>
<path d="M374.84 107.323L375.046 93.0374L359.823 100.432V117.756L371.549 112.374C373.528 111.466 374.809 109.5 374.84 107.323Z" fill="#979797"/>
</svg>
