<svg width="82" height="82" viewBox="0 0 82 82" fill="none" xmlns="http://www.w3.org/2000/svg">
<rect x="1.22244" width="80.7709" height="80.7709" rx="22" transform="rotate(0.867186 1.22244 0)" fill="#F95C8A"/>
<path d="M52.5639 40.8333C47.6519 40.8333 43.6707 44.8146 43.6707 49.7261C43.6707 54.638 47.6519 58.6197 52.5639 58.6197C57.4752 58.6197 61.4568 54.638 61.4568 49.7261C61.4568 44.8146 57.4752 40.8333 52.5639 40.8333ZM29.4588 40.8339C24.5474 40.8339 20.5657 44.8146 20.5657 49.7266C20.5657 54.638 24.5474 58.6197 29.4588 58.6197C34.3704 58.6197 38.3523 54.638 38.3523 49.7266C38.3523 44.8146 34.3704 40.8339 29.4588 40.8339ZM49.904 29.7167C49.904 34.6283 45.9228 38.6106 41.0115 38.6106C36.0997 38.6106 32.1183 34.6283 32.1183 29.7167C32.1183 24.8056 36.0997 20.8239 41.0115 20.8239C45.9228 20.8239 49.904 24.8056 49.904 29.7167Z" fill="white"/>
</svg>
