<svg width="80" height="80" viewBox="0 0 80 80" fill="none" xmlns="http://www.w3.org/2000/svg">
<rect width="80" height="80" rx="22" fill="black"/>
<path d="M36.3483 49.4416C29.9691 48.6684 25.4748 44.0773 25.4748 38.1332C25.4748 35.7169 26.3447 33.1072 27.7945 31.3675C27.1662 29.7727 27.2629 26.3898 27.9878 24.9883C29.9208 24.7467 32.5305 25.7616 34.0769 27.163C35.9134 26.5831 37.8464 26.2931 40.2144 26.2931C42.5824 26.2931 44.5155 26.5831 46.2553 27.1147C47.7534 25.7616 50.4113 24.7467 52.3444 24.9883C53.021 26.2931 53.1176 29.676 52.4894 31.3191C54.0358 33.1555 54.8574 35.6202 54.8574 38.1332C54.8574 44.0773 50.363 48.5718 43.8872 49.3933C45.5303 50.4565 46.6419 52.7761 46.6419 55.4341V60.4602C46.6419 61.9098 47.85 62.7314 49.2998 62.1515C58.047 58.8168 64.9093 50.0699 64.9093 39.2447C64.9093 25.5683 53.7942 14.4048 40.1177 14.4048C26.4413 14.4048 15.4229 25.5682 15.4229 39.2447C15.4229 49.9732 22.2369 58.8653 31.4189 62.2C32.7238 62.683 33.9803 61.8134 33.9803 60.5087V56.6423C33.3037 56.9322 32.4338 57.1255 31.6606 57.1255C28.471 57.1255 26.5863 55.3858 25.2331 52.1479C24.7016 50.8431 24.1216 50.0699 23.0101 49.9249C22.4302 49.8765 22.2369 49.6349 22.2369 49.345C22.2369 48.7651 23.2034 48.3301 24.1699 48.3301C25.5714 48.3301 26.7796 49.2 28.0361 50.9881C29.0026 52.3895 30.0175 53.0178 31.2256 53.0178C32.4338 53.0178 33.2071 52.5828 34.3185 51.4714C35.1401 50.6498 35.7683 49.9249 36.3483 49.4416Z" fill="white"/>
</svg>
