<svg width="80" height="80" viewBox="0 0 80 80" fill="none" xmlns="http://www.w3.org/2000/svg">
<rect width="80" height="80" rx="22" fill="white"/>
<path d="M63.2319 43.011L60.6172 35.1701L55.4477 19.6151C55.3865 19.439 55.2716 19.2864 55.1193 19.1789C54.967 19.0714 54.7848 19.0142 54.5983 19.0155C54.4124 19.0149 54.231 19.0724 54.0793 19.1799C53.9277 19.2873 53.8133 19.4395 53.7523 19.6151L48.5828 35.1601H31.4123L26.2428 19.6117C26.1816 19.4365 26.0672 19.2848 25.9155 19.1779C25.7637 19.071 25.5824 19.0142 25.3968 19.0155C25.2108 19.0144 25.0291 19.0717 24.8773 19.1792C24.7256 19.2868 24.6113 19.4392 24.5507 19.6151L19.3879 35.1601L16.7765 43.011C16.661 43.3608 16.6611 43.7385 16.7769 44.0882C16.8926 44.4379 17.1179 44.7411 17.4194 44.9528L40.0025 60.9809L62.579 44.9528C62.8819 44.7421 63.1089 44.4395 63.2264 44.0898C63.344 43.7401 63.3459 43.3618 63.2319 43.011Z" fill="#FC6D26"/>
<path d="M39.9991 60.9709L48.5861 35.1569H31.4155L39.9991 60.9709Z" fill="#E24329"/>
<path d="M39.9991 60.9709L31.4088 35.1569H19.3911L39.9991 60.9709Z" fill="#FC6D26"/>
<path d="M19.3811 35.1667L16.7697 43.0076C16.6541 43.3574 16.6542 43.7351 16.77 44.0848C16.8858 44.4345 17.1111 44.7377 17.4126 44.9495L39.999 60.9842L19.3811 35.1701V35.1667Z" fill="#FCA326"/>
<path d="M19.3877 35.1667H31.4187L26.2426 19.6217C26.1815 19.4461 26.0672 19.2939 25.9155 19.1865C25.7639 19.079 25.5824 19.0215 25.3965 19.0221C25.2101 19.0208 25.0279 19.078 24.8756 19.1855C24.7232 19.293 24.6084 19.4455 24.5472 19.6217L19.3877 35.1667Z" fill="#E24329"/>
<path d="M39.999 60.9709L48.586 35.1569H60.6236L39.999 60.9709Z" fill="#FC6D26"/>
<path d="M60.617 35.1667L63.225 43.0076C63.3411 43.3573 63.3413 43.7352 63.2255 44.0851C63.1097 44.4349 62.8841 44.7381 62.5822 44.9495L39.999 60.9708L60.6103 35.1667H60.617Z" fill="#FCA326"/>
<path d="M60.6171 35.1668H48.5928L53.7589 19.6217C53.8197 19.4453 53.9344 19.2925 54.0869 19.1849C54.2393 19.0773 54.4217 19.0203 54.6083 19.0221C54.9913 19.0221 55.3311 19.2653 55.4543 19.6217L60.6238 35.1668H60.6171Z" fill="#E24329"/>
</svg>
