<svg width="80" height="80" viewBox="0 0 80 80" fill="none" xmlns="http://www.w3.org/2000/svg">
<rect width="80" height="80" rx="22" fill="#4EB5FF"/>
<path d="M56.8234 26.6974H38.48C38.48 30.4123 42.1806 33.4203 46.7539 33.4203H50.1275V36.0729C50.1275 39.7878 53.8296 42.7958 58.4018 42.7958V27.9799C58.4015 27.6398 58.2351 27.3138 57.9391 27.0733C57.6432 26.8328 57.2419 26.6976 56.8234 26.6974Z" fill="white"/>
<path d="M47.7334 34.1257H29.3896C29.3896 37.8402 33.0906 40.8482 37.6624 40.8482H41.0375V43.5009C41.0375 47.2158 44.7397 50.2238 49.3118 50.2238V35.4078C49.3112 35.0679 49.1447 34.742 48.8488 34.5016C48.553 34.2612 48.1518 34.1262 47.7334 34.1257Z" fill="white"/>
<path d="M38.6431 41.5559H20.2993C20.2993 45.2721 23.9999 48.2788 28.5736 48.2788H31.9472V50.9327C31.9472 54.6476 35.6494 57.6543 40.2211 57.6543V42.8397C40.2207 42.4996 40.0544 42.1736 39.7586 41.933C39.4628 41.6924 39.0616 41.5566 38.6431 41.5559Z" fill="white"/>
</svg>
