<svg width="82" height="82" viewBox="0 0 82 82" fill="none" xmlns="http://www.w3.org/2000/svg">
<rect x="1.22244" width="80.7709" height="80.7709" rx="22" transform="rotate(0.867186 1.22244 0)" fill="#4D4D4D"/>
<path d="M22.3567 41.4155C22.7256 45.5382 24.4579 49.566 27.5647 52.7684C30.6715 55.9706 34.645 57.8241 38.7548 58.3176L22.3567 41.4155Z" fill="white"/>
<path d="M22.3297 38.4008L41.7675 58.4359C43.4438 58.3675 45.1131 58.075 46.7271 57.5574L23.3579 33.4701C22.7918 35.0676 22.4488 36.7274 22.3297 38.4008Z" fill="white"/>
<path d="M24.2404 31.3922L48.8314 56.7392C50.1362 56.1381 51.3868 55.3786 52.5543 54.46L26.6312 27.7402C25.6777 28.8793 24.8806 30.1062 24.2404 31.3922Z" fill="white"/>
<path d="M28.0499 26.2199C35.4739 19.1077 47.2585 19.3144 54.4278 26.7042C61.5971 34.0939 61.4472 45.8792 54.1136 53.0845L28.0499 26.2199Z" fill="white"/>
</svg>
