<svg width="80" height="80" viewBox="0 0 80 80" fill="none" xmlns="http://www.w3.org/2000/svg">
<rect width="80" height="80" rx="22" fill="#414141"/>
<path d="M21.3632 19.6503L46.0099 17.8298C49.0374 17.5702 49.8151 17.7452 51.7189 19.1291L59.5864 24.6716C60.8839 25.6248 61.316 25.8844 61.316 26.9223V57.3194C61.316 59.2244 60.6242 60.3514 58.2025 60.5233L29.5813 62.2569C27.764 62.3429 26.8985 62.0832 25.9466 60.8703L20.153 53.3364C19.1138 51.9498 18.6831 50.9119 18.6831 49.6986V22.6792C18.6831 21.1215 19.3748 19.8227 21.3632 19.6503Z" fill="white"/>
<path fill-rule="evenodd" clip-rule="evenodd" d="M46.0099 17.8303L21.3632 19.6507C19.3748 19.8227 18.6831 21.122 18.6831 22.6792V49.6986C18.6831 50.9115 19.1138 51.9493 20.153 53.3364L25.9466 60.8698C26.8985 62.0827 27.764 62.3429 29.5813 62.2564L58.2029 60.5237C60.6229 60.3514 61.3164 59.2244 61.3164 57.3198V26.9227C61.3164 25.9383 60.9276 25.6546 59.7828 24.8145L51.7189 19.1291C49.8156 17.7452 49.0374 17.5702 46.0099 17.8298V17.8303ZM30.2285 26.4252C27.8914 26.5824 27.3613 26.6181 26.0339 25.5388L22.6594 22.8547C22.3164 22.5072 22.4888 22.0738 23.3529 21.9874L47.0464 20.2561C49.0361 20.0823 50.0722 20.7759 50.8503 21.3816L54.9139 24.3259C55.0876 24.4137 55.5197 24.9317 54.9999 24.9317L30.5314 26.4047L30.2285 26.4252ZM27.5038 57.0601V31.2554C27.5038 30.1284 27.8499 29.6086 28.886 29.5213L56.9896 27.8759C57.9428 27.79 58.3735 28.3957 58.3735 29.5209V55.1537C58.3735 56.2806 58.1998 57.2338 56.6439 57.3198L29.7506 58.8788C28.1947 58.9648 27.5043 58.4467 27.5043 57.0601H27.5038ZM54.0511 32.6389C54.2235 33.4183 54.0511 34.1978 53.2716 34.2869L51.9754 34.5439V53.5961C50.8499 54.2018 49.8138 54.5479 48.9479 54.5479C47.564 54.5479 47.2183 54.1145 46.1818 52.8166L37.7054 39.4806V52.3832L40.3868 52.9903C40.3868 52.9903 40.3868 54.5493 38.2234 54.5493L32.2592 54.8954C32.0855 54.5479 32.2592 53.6825 32.8636 53.5101L34.4213 53.078V36.0183L32.2596 35.8432C32.0859 35.0637 32.518 33.9382 33.7295 33.8509L40.1289 33.4201L48.9483 46.9285V34.9778L46.7003 34.7194C46.5266 33.7649 47.2183 33.0714 48.0824 32.9867L54.0511 32.6389Z" fill="black"/>
</svg>
