<svg width="80" height="80" viewBox="0 0 80 80" fill="none" xmlns="http://www.w3.org/2000/svg">
<rect width="80" height="80" rx="22" fill="white"/>
<path fill-rule="evenodd" clip-rule="evenodd" d="M33.8207 16.7864C31.2594 16.7883 29.1865 18.8668 29.1884 21.4281C29.1865 23.9894 31.2613 26.068 33.8226 26.0699H38.4568V21.43C38.4587 18.8687 36.3839 16.7902 33.8207 16.7864C33.8226 16.7864 33.8226 16.7864 33.8207 16.7864ZM33.8207 29.1669H21.4667C18.9054 29.1688 16.8306 31.2474 16.8325 33.8086C16.8287 36.3699 18.9035 38.4485 21.4648 38.4523H33.8207C36.382 38.4504 38.4568 36.3718 38.4549 33.8105C38.4568 31.2474 36.382 29.1688 33.8207 29.1669Z" fill="#36C5F0"/>
<path fill-rule="evenodd" clip-rule="evenodd" d="M63.1668 33.8086C63.1687 31.2474 61.0939 29.1688 58.5326 29.1669C55.9713 29.1688 53.8966 31.2474 53.8985 33.8086V38.4523H58.5326C61.0939 38.4504 63.1687 36.3718 63.1668 33.8086ZM50.8109 33.8086V21.4281C50.8128 18.8687 48.7399 16.7902 46.1786 16.7864C43.6173 16.7883 41.5425 18.8668 41.5444 21.4281V33.8086C41.5407 36.3699 43.6154 38.4485 46.1767 38.4523C48.738 38.4504 50.8128 36.3718 50.8109 33.8086Z" fill="#2EB67D"/>
<path fill-rule="evenodd" clip-rule="evenodd" d="M46.1762 63.2133C48.7375 63.2114 50.8122 61.1329 50.8103 58.5716C50.8122 56.0103 48.7375 53.9317 46.1762 53.9298H41.542V58.5716C41.5401 61.131 43.6149 63.2096 46.1762 63.2133ZM46.1762 50.8309H58.5321C61.0934 50.829 63.1682 48.7505 63.1663 46.1892C63.17 43.6279 61.0953 41.5493 58.534 41.5455H46.1781C43.6168 41.5474 41.542 43.626 41.5439 46.1873C41.542 48.7505 43.6149 50.829 46.1762 50.8309Z" fill="#ECB22E"/>
<path fill-rule="evenodd" clip-rule="evenodd" d="M16.8325 46.1891C16.8306 48.7504 18.9054 50.829 21.4667 50.8309C24.028 50.829 26.1028 48.7504 26.1009 46.1891V41.5474H21.4667C18.9054 41.5493 16.8306 43.6278 16.8325 46.1891ZM29.1884 46.1891V58.5696C29.1846 61.1309 31.2594 63.2095 33.8207 63.2133C36.382 63.2114 38.4568 61.1328 38.4549 58.5715V46.1929C38.4587 43.6316 36.3839 41.553 33.8226 41.5493C31.2594 41.5493 29.1865 43.6278 29.1884 46.1891Z" fill="#E01E5A"/>
</svg>
