<svg width="80" height="80" viewBox="0 0 80 80" fill="none" xmlns="http://www.w3.org/2000/svg">
<rect width="80" height="80" rx="22" fill="white"/>
<path fill-rule="evenodd" clip-rule="evenodd" d="M21.6173 23.6965V51.5715C21.6173 53.2828 23.0033 54.6688 24.7145 54.6688H34.0062C35.7174 54.6688 37.1035 53.2828 37.1035 51.5715V23.6965C37.1035 21.9853 35.7174 20.5992 34.0062 20.5992H24.7145C23.0033 20.5992 21.6173 21.9853 21.6173 23.6965ZM43.2979 23.6965V39.1826C43.2979 40.8938 44.6839 42.2798 46.3951 42.2798H55.6868C57.398 42.2798 58.7841 40.8938 58.7841 39.1826V23.6965C58.7841 21.9853 57.398 20.5992 55.6868 20.5992H46.3951C44.6839 20.5992 43.2979 21.9853 43.2979 23.6965ZM21.6173 14.4048C18.1964 14.4048 15.4229 17.1799 15.4229 20.5992V57.766C15.4229 61.1869 18.198 63.9604 21.6173 63.9604H58.7841C62.2049 63.9604 64.9785 61.1853 64.9785 57.766V20.5992C64.9785 17.1784 62.2034 14.4048 58.7841 14.4048H21.6173Z" fill="#007AC2"/>
</svg>
