<svg width="80" height="80" viewBox="0 0 80 80" fill="none" xmlns="http://www.w3.org/2000/svg">
<rect width="80" height="80" rx="22" fill="#E7140E"/>
<path d="M37.599 44.8336C37.1661 44.8336 36.7277 44.7437 36.306 44.5582L27.3117 40.5501C25.704 39.8362 24.9788 37.9417 25.6928 36.334L29.7009 27.3397C30.4148 25.732 32.3092 25.0068 33.9169 25.7207L42.9112 29.7288C44.519 30.4427 45.2441 32.3372 44.5302 33.9449L40.5221 42.9392C39.9881 44.1309 38.8188 44.8336 37.599 44.8336ZM37.0537 42.8717C37.7339 43.1753 38.5321 42.8661 38.8357 42.1915L42.8438 33.1972C43.1473 32.517 42.8382 31.7188 42.1636 31.4152L33.1637 27.4072C32.4835 27.1036 31.6852 27.4128 31.3817 28.0873L27.3736 37.0817C27.07 37.7618 27.3792 38.5601 28.0538 38.8636L37.0537 42.8717Z" fill="white"/>
<path d="M65.8122 44.8392H55.9635C54.204 44.8392 52.7705 43.4057 52.7705 41.6462V31.7975C52.7705 30.038 54.204 28.6045 55.9635 28.6045H65.8122C67.5718 28.6045 69.0052 30.038 69.0052 31.7975V41.6462C69.0052 43.4057 67.5718 44.8392 65.8122 44.8392ZM55.9635 30.4483C55.2215 30.4483 54.6143 31.0554 54.6143 31.7975V41.6462C54.6143 42.3883 55.2215 42.9954 55.9635 42.9954H65.8122C66.5543 42.9954 67.1614 42.3883 67.1614 41.6462V31.7975C67.1614 31.0554 66.5543 30.4483 65.8122 30.4483H55.9635Z" fill="white"/>
<path d="M28.9301 33.602L27.6035 36.5701C27.5866 36.6039 27.5697 36.632 27.5529 36.6601L28.07 39.853C28.1881 40.5895 27.6878 41.2809 26.957 41.3989L17.2319 42.9729C16.8778 43.0292 16.518 42.9448 16.2257 42.7368C15.9334 42.5289 15.7422 42.2141 15.686 41.8599L14.112 32.1348C14.0558 31.7807 14.1401 31.4209 14.3481 31.1286C14.5561 30.8363 14.8709 30.6451 15.2251 30.5889L24.9501 29.0149C25.0232 29.0037 25.0963 28.998 25.1638 28.998C25.8102 28.998 26.3892 29.4702 26.496 30.1336L27.0188 33.349L28.3905 30.2741L28.3174 29.8413C28.0363 28.1042 26.3949 26.9181 24.6578 27.1992L14.9327 28.7732C14.0951 28.9025 13.3531 29.3578 12.8584 30.0493C12.3581 30.7407 12.1614 31.5839 12.2963 32.4271L13.8703 42.1522C14.0052 42.9954 14.4605 43.7318 15.152 44.2321C15.6973 44.6313 16.3437 44.8336 17.0127 44.8336C17.1813 44.8336 17.3556 44.8224 17.5298 44.7943L27.2549 43.2203C28.992 42.9392 30.1781 41.2978 29.897 39.5607L28.9301 33.602Z" fill="white"/>
<path d="M40.5946 38.2453L42.0224 35.0467L41.6177 32.073C41.5671 31.7188 41.6627 31.3647 41.8819 31.078C42.1011 30.7913 42.4159 30.6058 42.7757 30.5608L52.5345 29.2341C52.5964 29.2285 52.6582 29.2229 52.72 29.2229C53.0123 29.2229 53.2934 29.3185 53.5351 29.4983C53.5801 29.5321 53.6195 29.5714 53.6588 29.6052C54.0917 29.1498 54.6594 28.8238 55.2947 28.6832C55.1148 28.4359 54.9011 28.2167 54.6482 28.0255C53.968 27.5084 53.1304 27.2891 52.2872 27.4016L42.5171 28.7282C41.6739 28.8406 40.9206 29.2791 40.4091 29.9593C39.8919 30.6395 39.6727 31.4771 39.7851 32.3203L40.5946 38.2453Z" fill="white"/>
<path d="M57.2007 39.8924L55.919 30.4484C55.1994 30.4709 54.6204 31.0667 54.6204 31.7919V34.5633L55.3793 40.1397C55.4299 40.4939 55.3343 40.848 55.1151 41.1347C54.8959 41.4214 54.5811 41.6069 54.2213 41.6519L44.4625 42.9786C44.1083 43.0291 43.7542 42.9336 43.4675 42.7143C43.1808 42.4951 42.9953 42.1803 42.9503 41.8205L42.5006 38.5095L41.0728 41.7081L41.1233 42.0679C41.2358 42.9111 41.6742 43.6644 42.3544 44.1759C42.9166 44.6031 43.5855 44.828 44.2826 44.828C44.4288 44.828 44.5749 44.8168 44.7211 44.7999L54.4686 43.4845C55.3119 43.3721 56.0651 42.9336 56.5767 42.2534C57.0939 41.5732 57.3131 40.7356 57.2007 39.8924Z" fill="white"/>
<path d="M48.6888 48.3527C48.6888 47.5095 49.3071 46.9023 50.1503 46.9023C51.0217 46.9023 51.6119 47.4982 51.6119 48.3583C51.6119 49.2296 51.0104 49.8311 50.1391 49.8311C49.2622 49.8311 48.6888 49.2296 48.6888 48.3527ZM50.9373 48.3639C50.9373 47.8524 50.69 47.4139 50.1335 47.4139C49.5713 47.4139 49.3577 47.8692 49.3577 48.3864C49.3577 48.8755 49.6219 49.3252 50.1616 49.3252C50.7181 49.3196 50.9373 48.8417 50.9373 48.3639ZM42.4546 46.9473H42.8706C42.9324 46.9473 42.983 46.9979 42.983 47.0597V48.1053H44.1635V47.0597C44.1635 46.9979 44.2141 46.9473 44.2759 46.9473H44.6919C44.7538 46.9473 44.8044 46.9979 44.8044 47.0597V49.6737C44.8044 49.7356 44.7538 49.7861 44.6919 49.7861H44.2816C44.2197 49.7861 44.1691 49.7356 44.1691 49.6737V48.6169H42.9886V49.6737C42.9886 49.7356 42.938 49.7861 42.8762 49.7861H42.4602C42.3984 49.7861 42.3478 49.7356 42.3478 49.6737V47.0597C42.3422 46.9979 42.3928 46.9473 42.4546 46.9473ZM35.5346 48.3527C35.5346 47.5095 36.153 46.9023 36.9962 46.9023C37.8675 46.9023 38.4577 47.4982 38.4577 48.3583C38.4577 49.2296 37.8563 49.8311 36.9849 49.8311C36.108 49.8311 35.5346 49.2296 35.5346 48.3527ZM37.7888 48.3639C37.7888 47.8524 37.5415 47.4139 36.9849 47.4139C36.4228 47.4139 36.2092 47.8692 36.2092 48.3864C36.2092 48.8755 36.4734 49.3252 37.013 49.3252C37.5696 49.3196 37.7888 48.8417 37.7888 48.3639ZM29.6658 49.5107L31.0599 47.4532H29.9132C29.8513 47.4532 29.8007 47.4027 29.8007 47.3408V47.0654C29.8007 47.0035 29.8513 46.9529 29.9132 46.9529H31.7963C31.8582 46.9529 31.9088 47.0035 31.9088 47.0654V47.1722C31.9088 47.1947 31.9032 47.2171 31.8919 47.234L30.5259 49.2915H31.7514C31.8132 49.2915 31.8638 49.342 31.8638 49.4039V49.6793C31.8638 49.7412 31.8132 49.7918 31.7514 49.7918H29.7614C29.6995 49.7918 29.649 49.7412 29.649 49.6793V49.5781C29.6433 49.55 29.6546 49.5276 29.6658 49.5107Z" fill="white"/>
</svg>
