<svg width="54" height="54" viewBox="0 0 54 54" fill="none" xmlns="http://www.w3.org/2000/svg">
<path d="M26.7826 5.02148C22.4787 5.02148 18.2714 6.29775 14.6928 8.68889C11.1142 11.08 8.32501 14.4787 6.67796 18.455C5.03091 22.4313 4.59997 26.8067 5.43963 31.028C6.27928 35.2492 8.35183 39.1267 11.3952 42.17C14.4385 45.2134 18.316 47.2859 22.5372 48.1256C26.7585 48.9652 31.1339 48.5343 35.1102 46.8872C39.0865 45.2402 42.4852 42.451 44.8763 38.8724C47.2674 35.2938 48.5437 31.0865 48.5437 26.7826C48.5371 21.0132 46.2422 15.4821 42.1627 11.4025C38.0831 7.32295 32.552 5.02813 26.7826 5.02148ZM45.1958 26.7826C45.1973 28.4807 44.9628 30.1708 44.4991 31.8044H36.4412C36.9545 28.4762 36.9545 25.089 36.4412 21.7608H44.4991C44.9628 23.3944 45.1973 25.0845 45.1958 26.7826ZM21.3423 35.1522H32.2229C31.151 38.6646 29.2901 41.8853 26.7826 44.5681C24.276 41.8845 22.4153 38.6641 21.3423 35.1522ZM20.5263 31.8044C19.9516 28.4812 19.9516 25.084 20.5263 21.7608H33.0557C33.6304 25.084 33.6304 28.4812 33.0557 31.8044H20.5263ZM8.36936 26.7826C8.3679 25.0845 8.6024 23.3944 9.06613 21.7608H17.124C16.6107 25.089 16.6107 28.4762 17.124 31.8044H9.06613C8.6024 30.1708 8.3679 28.4807 8.36936 26.7826ZM32.2229 18.4129H21.3423C22.4142 14.9006 24.2751 11.6799 26.7826 8.99707C29.2892 11.6806 31.1499 14.9011 32.2229 18.4129ZM43.1725 18.4129H35.7193C34.7799 14.9665 33.1967 11.7291 31.0532 8.87153C33.643 9.49366 36.0677 10.6684 38.161 12.3153C40.2543 13.9622 41.9667 16.0423 43.1808 18.4129H43.1725ZM22.512 8.87153C20.3685 11.7291 18.7853 14.9665 17.8459 18.4129H10.3844C11.5985 16.0423 13.3109 13.9622 15.4042 12.3153C17.4975 10.6684 19.9222 9.49366 22.512 8.87153ZM10.3844 35.1522H17.8459C18.7853 38.5986 20.3685 41.8361 22.512 44.6937C19.9222 44.0715 17.4975 42.8967 15.4042 41.2498C13.3109 39.6029 11.5985 37.5229 10.3844 35.1522ZM31.0532 44.6937C33.1967 41.8361 34.7799 38.5986 35.7193 35.1522H43.1808C41.9667 37.5229 40.2543 39.6029 38.161 41.2498C36.0677 42.8967 33.643 44.0715 31.0532 44.6937Z" fill="#535353"/>
</svg>
