<svg width="54" height="54" viewBox="0 0 54 54" fill="none" xmlns="http://www.w3.org/2000/svg">
<path d="M26.7807 5.02148C15.5172 5.02148 6.69348 10.1688 6.69348 16.739V36.8262C6.69348 43.3964 15.5172 48.5437 26.7807 48.5437C38.0441 48.5437 46.8678 43.3964 46.8678 36.8262V16.739C46.8678 10.1688 38.0441 5.02148 26.7807 5.02148ZM43.52 26.7826C43.52 28.7955 41.8711 30.8481 38.9983 32.4154C35.7634 34.1793 31.4237 35.1522 26.7807 35.1522C22.1376 35.1522 17.7979 34.1793 14.5631 32.4154C11.6902 30.8481 10.0413 28.7955 10.0413 26.7826V23.3008C13.611 26.4394 19.7146 28.4565 26.7807 28.4565C33.8467 28.4565 39.9503 26.4311 43.52 23.3008V26.7826ZM14.5631 11.1062C17.7979 9.34232 22.1376 8.36935 26.7807 8.36935C31.4237 8.36935 35.7634 9.34232 38.9983 11.1062C41.8711 12.6734 43.52 14.7261 43.52 16.739C43.52 18.7519 41.8711 20.8046 38.9983 22.3718C35.7634 24.1357 31.4237 25.1087 26.7807 25.1087C22.1376 25.1087 17.7979 24.1357 14.5631 22.3718C11.6902 20.8046 10.0413 18.7519 10.0413 16.739C10.0413 14.7261 11.6902 12.6734 14.5631 11.1062ZM38.9983 42.459C35.7634 44.2229 31.4237 45.1958 26.7807 45.1958C22.1376 45.1958 17.7979 44.2229 14.5631 42.459C11.6902 40.8917 10.0413 38.8391 10.0413 36.8262V33.3444C13.611 36.483 19.7146 38.5001 26.7807 38.5001C33.8467 38.5001 39.9503 36.4746 43.52 33.3444V36.8262C43.52 38.8391 41.8711 40.8917 38.9983 42.459Z" fill="#535353"/>
</svg>
