<svg width="53" height="54" viewBox="0 0 53 54" fill="none" xmlns="http://www.w3.org/2000/svg">
<path d="M42.8191 8.37012H9.8805C9.00692 8.37012 8.16911 8.72284 7.55139 9.35068C6.93367 9.97853 6.58664 10.8301 6.58664 11.718V23.4355C6.58664 34.4667 11.8404 41.152 16.248 44.8179C20.9952 48.7642 25.7178 50.1033 25.9237 50.1598C26.2068 50.2381 26.5053 50.2381 26.7883 50.1598C26.9942 50.1033 31.7106 48.7642 36.4641 44.8179C40.8593 41.152 46.113 34.4667 46.113 23.4355V11.718C46.113 10.8301 45.766 9.97853 45.1483 9.35068C44.5305 8.72284 43.6927 8.37012 42.8191 8.37012ZM42.8191 23.4355C42.8191 31.1921 40.007 37.4881 34.461 42.1459C32.0467 44.1665 29.301 45.739 26.3498 46.791C23.4372 45.7573 20.7254 44.2128 18.3375 42.2275C12.7256 37.5614 9.8805 31.2402 9.8805 23.4355V11.718H42.8191V23.4355ZM16.95 29.6416C16.6409 29.3275 16.4673 28.9015 16.4673 28.4573C16.4673 28.0131 16.6409 27.5871 16.95 27.273C17.259 26.9589 17.6781 26.7824 18.1152 26.7824C18.5522 26.7824 18.9713 26.9589 19.2804 27.273L23.056 31.1126L33.4193 20.5773C33.5723 20.4217 33.754 20.2984 33.9539 20.2142C34.1538 20.13 34.3681 20.0867 34.5845 20.0867C34.8009 20.0867 35.0152 20.13 35.2151 20.2142C35.415 20.2984 35.5967 20.4217 35.7497 20.5773C35.9027 20.7328 36.0241 20.9174 36.1069 21.1206C36.1897 21.3238 36.2323 21.5416 36.2323 21.7616C36.2323 21.9815 36.1897 22.1993 36.1069 22.4025C36.0241 22.6057 35.9027 22.7903 35.7497 22.9459L24.2212 34.6634C24.0682 34.819 23.8866 34.9425 23.6866 35.0267C23.4867 35.111 23.2724 35.1543 23.056 35.1543C22.8395 35.1543 22.6252 35.111 22.4253 35.0267C22.2254 34.9425 22.0437 34.819 21.8908 34.6634L16.95 29.6416Z" fill="#29A5FF"/>
</svg>
