<svg width="54" height="54" viewBox="0 0 54 54" fill="none" xmlns="http://www.w3.org/2000/svg">
<path d="M36.3387 20.5786C36.4943 20.7341 36.6178 20.9187 36.702 21.1219C36.7863 21.3252 36.8297 21.543 36.8297 21.763C36.8297 21.983 36.7863 22.2008 36.702 22.4041C36.6178 22.6073 36.4943 22.7919 36.3387 22.9474L24.6203 34.6658C24.4648 34.8214 24.2802 34.9449 24.077 35.0291C23.8737 35.1134 23.6559 35.1568 23.4359 35.1568C23.2159 35.1568 22.9981 35.1134 22.7948 35.0291C22.5916 34.9449 22.407 34.8214 22.2515 34.6658L17.2294 29.6436C16.9152 29.3295 16.7388 28.9035 16.7388 28.4592C16.7388 28.015 16.9152 27.5889 17.2294 27.2748C17.5435 26.9607 17.9695 26.7842 18.4137 26.7842C18.858 26.7842 19.284 26.9607 19.5981 27.2748L23.4359 31.1147L33.9699 20.5786C34.1254 20.423 34.31 20.2995 34.5132 20.2152C34.7164 20.131 34.9343 20.0876 35.1543 20.0876C35.3743 20.0876 35.5921 20.131 35.7953 20.2152C35.9986 20.2995 36.1832 20.423 36.3387 20.5786ZM48.5467 26.7852C48.5467 31.0894 47.2704 35.297 44.879 38.8759C42.4877 42.4547 39.0889 45.2441 35.1122 46.8913C31.1356 48.5384 26.7599 48.9694 22.5383 48.1297C18.3168 47.29 14.439 45.2173 11.3955 42.1737C8.35189 39.1302 6.27919 35.2524 5.43948 31.0309C4.59976 26.8093 5.03073 22.4336 6.6779 18.4569C8.32507 14.4803 11.1144 11.0815 14.6933 8.69014C18.2722 6.29882 22.4798 5.02246 26.784 5.02246C32.554 5.02855 38.0859 7.32336 42.1658 11.4033C46.2458 15.4833 48.5406 21.0152 48.5467 26.7852ZM45.1986 26.7852C45.1986 23.1431 44.1186 19.5828 42.0952 16.5546C40.0718 13.5263 37.1958 11.1661 33.831 9.7723C30.4661 8.37854 26.7636 8.01387 23.1915 8.7244C19.6194 9.43493 16.3383 11.1888 13.7629 13.7641C11.1876 16.3394 9.43378 19.6206 8.72325 23.1927C8.01272 26.7647 8.37739 30.4673 9.77115 33.8321C11.1649 37.197 13.5251 40.0729 16.5534 42.0963C19.5817 44.1198 23.142 45.1998 26.784 45.1998C31.6662 45.1942 36.3468 43.2523 39.799 39.8001C43.2512 36.3479 45.1931 31.6673 45.1986 26.7852Z" fill="#FFA840"/>
</svg>
